<svg xmlns="http://www.w3.org/2000/svg" xmlns:xlink="http://www.w3.org/1999/xlink" width="67px" height="70px">
<path fill-rule="evenodd"  fill="rgb(255, 255, 255)"
 d="M56.948,56.927 L60.078,62.901 C60.223,62.883 60.366,62.857 60.516,62.857 C62.505,62.857 64.118,64.456 64.118,66.429 C64.118,68.401 62.505,70.000 60.516,70.000 C59.040,70.000 57.774,69.117 57.218,67.857 L37.158,67.857 C36.602,69.117 35.337,70.000 33.860,70.000 C32.384,70.000 31.118,69.117 30.562,67.857 L8.341,67.857 C7.785,69.117 6.519,70.000 5.043,70.000 C3.054,70.000 1.441,68.401 1.441,66.429 C1.441,64.456 3.054,62.857 5.043,62.857 C5.883,62.857 6.646,63.154 7.259,63.632 L10.534,57.383 C4.052,51.326 -0.000,42.742 -0.000,33.214 C-0.000,14.870 14.998,-0.000 33.500,-0.000 C52.002,-0.000 67.000,14.870 67.000,33.214 C67.000,42.504 63.149,50.899 56.948,56.927 Z"/>
</svg>